<svg xmlns="http://www.w3.org/2000/svg" id="svg16" version="1.1" fill="none" viewBox="0 0 1002 252" height="252" width="1002">
  
  <g id="g16" clip-path="url(#clip0_235_486)">
    <path style="stroke:#000000;stroke-opacity:1;fill:#303d8e;fill-opacity:1" id="path1" fill="#4556BF" d="M39.6196 67.0652L38.0434 74.8085L999.361 8.77862L1001.03 0.920166L39.6196 67.0652Z"></path>
    <path style="stroke:#000000;stroke-opacity:1;fill:#303d8e;fill-opacity:1" id="path2" fill="#4556BF" d="M0.314453 251.65L960.082 185.794L961.748 177.937L1.86689 243.921L0.314453 251.65Z"></path>
    <path style="fill:#4555bf;fill-opacity:1;stroke:#000000;stroke-opacity:1" id="path3" fill="white" d="M30.4556 112.169L9.82275 210.487L65.2404 206.625L79.3207 139.399L55.4538 140.962L51.473 160.957L55.641 160.686L49.7955 188.109L33.751 189.247L47.8093 121.487L65.7423 120.233L83.6753 118.979L87.8579 98.8022L14.0063 103.748L30.4556 112.169Z"></path>
    <path style="stroke:#000000;stroke-opacity:1;fill:#4555bf;fill-opacity:1" id="path4" fill="white" d="M93.02 204.821L113.653 106.504L115.648 97.0166L171.055 93.1368L162.518 133.734L148.438 200.96L93.02 204.821ZM116.849 183.509L131.524 182.525L135.724 161.981L145.758 114.525L131.072 115.531L116.849 183.509Z" clip-rule="evenodd" fill-rule="evenodd"></path>
    <path style="stroke:#000000;stroke-opacity:1;fill:#4555bf;fill-opacity:1" id="path5" fill="white" d="M173.315 199.182L193.948 100.864L195.943 91.3769L251.351 87.4971L242.813 128.094L228.733 195.32L173.315 199.182ZM197.145 177.87L211.819 176.885L216.019 156.341L226.053 108.886L211.367 109.891L197.145 177.87Z" clip-rule="evenodd" fill-rule="evenodd"></path>
    <path style="stroke:#000000;stroke-opacity:1;fill:#4555bf;fill-opacity:1" id="path6" fill="white" d="M334.548 81.8082L279.14 85.688L256.513 193.493L311.93 189.631L334.548 81.8082ZM295.017 171.197L280.342 172.181L285.486 148.409L300.171 147.402L295.017 171.197ZM294.566 104.202L309.252 103.197L304.158 127.534L289.48 128.525L294.566 104.202Z" clip-rule="evenodd" fill-rule="evenodd"></path>
    <path style="stroke:#000000;stroke-opacity:1" id="path7" fill="#d5d5d5" d="m 425.325,115.725 -35.985,2.514 4.366,-20.7882 16.259,-1.1383 -2.859,13.7535 19.725,-1.376 7.075,-33.7783 -55.711,3.8907 -12.644,60.8266 35.986,-2.515 -5.875,27.521 -16.112,1.129 3.616,-16.966 -19.875,1.386 -7.831,36.993 55.711,-3.89 z"></path>
    <path style="stroke:#000000;stroke-opacity:1" id="path8" fill="#d5d5d5" d="m 447.636,93.2987 18.971,-1.3244 -18.519,88.3437 19.725,-1.384 18.521,-88.3433 18.97,-1.3243 4.216,-20.0269 -57.667,4.034 z"></path>
    <path style="stroke:#000000;stroke-opacity:1" id="path9" fill="#d5d5d5" d="m 538.753,106.678 4.215,-20.4735 16.111,-1.1282 -4.218,20.4757 z m 21.528,65.363 22.74,-108.3675 -55.562,3.8887 -22.736,108.3678 19.725,-1.384 10.087,-47.694 16.111,-1.128 -10.088,47.696 z"></path>
    <path style="stroke:#000000;stroke-opacity:1" id="path10" fill="#d5d5d5" d="m 619.434,167.647 18.521,-88.3439 18.971,-1.3318 4.218,-20.0216 -57.667,4.0341 -4.216,20.0215 18.97,-1.3243 -18.519,88.344 z"></path>
    <path style="stroke:#000000;stroke-opacity:1" id="path11" fill="#d5d5d5" d="m 656.315,164.682 19.724,-1.376 22.736,-108.3674 -19.724,1.3835 z"></path>
    <path style="stroke:#000000;stroke-opacity:1" id="path12" fill="#d5d5d5" d="m 734.755,71.8609 16.111,-1.1279 -14.307,68.323 -16.109,1.129 z m -38.245,89.7201 55.558,-3.881 22.736,-108.3671 -55.56,3.8804 z"></path>
    <path style="stroke:#000000;stroke-opacity:1" id="path13" fill="#d5d5d5" d="m 792.293,154.647 10.386,-49.224 9.034,47.863 17.165,-1.201 22.739,-108.3671 -19.724,1.3836 -10.392,49.9722 -9.033,-48.6159 -17.165,1.2004 -22.731,108.3678 z"></path>
    <path style="stroke:#000000;stroke-opacity:1" id="path14" fill="#4556BF" d="M901.631 52.8756L902.089 50.7097L917.942 49.6005L898.735 141.359L896.601 141.508L915.353 51.9171L901.631 52.8756ZM905.29 148.979L927.851 40.8284L895.688 43.077L891.726 61.9557L905.446 60.9959L886.849 150.273L905.29 148.979Z"></path>
    <path style="stroke:#000000;stroke-opacity:1" id="path15" fill="#4556BF" d="M981.197 45.1668L970.294 97.2533L985.064 96.2397L984.581 98.5646L969.807 99.5785L961.991 136.923L959.666 137.083L967.488 99.7389L932.427 102.166L981.197 45.1668ZM922.67 110.929L957.731 108.501L949.948 145.845L968.392 144.555L976.177 107.233L991.056 106.212L994.962 87.4669L980.086 88.4878L990.95 36.4044L976.892 37.4394L925.403 97.9007L922.67 110.929Z"></path>
    <path style="stroke:#000000;stroke-opacity:1" id="path16" fill="#4556BF" d="M977.128 53.5848L937.431 99.5136L967.993 97.4162L977.128 53.5848ZM965.589 76.0253L962.417 91.2458L951.58 91.9896L965.589 76.0253Z"></path>
  </g>
  <defs id="defs16">
    <clipPath id="clip0_235_486">
      <rect id="rect16" transform="translate(0.314453 0.920166)" fill="white" height="250.73" width="1000.71"></rect>
    </clipPath>
  </defs>
</svg>
